#!OML:ASF F:\VICON\USERDATA\INSTALL\rory3\rory3.ASF
:FULLY-SPECIFIED
:DEGREES
1
root 0.38605834046071863 16.90381492145347 -30.428182869134147 3.972526688685912 0.15576407771449463 -5.64198611433309
lfemur -29.528393707920046 4.835629016355316 -10.990518428557008
ltibia 96.48597889584414
lfoot 7.9115959740523305 -15.588693136461703
ltoes 1.9181412628529593
rfemur -22.222996814461624 11.006680997881336 34.77578811773678
rtibia 51.645501147983495
rfoot -26.802682197948865 -10.101087038027469
rtoes 3.788827669780506
lowerback 17.94857985105615 1.2926689040544397 2.5111063543563574
upperback 0.6855803987120103 2.5639967202641314 3.49978686067438
thorax -9.404575876408808 1.199106527856103 1.717584250032173
lowerneck -21.984181326928482 -3.451023625955723 -1.9348023974736341
upperneck 8.162747184612703 -4.352555004313068 2.149013406112748
head 6.081651453807583 -1.9873938326931533 0.5101306836498901
lclavicle 4.287489420592877e-15 5.758951497915795e-17
lhumerus -50.86689965990131 -10.143602048010154 95.41730372536793
lradius 101.57101602902345
lwrist 27.446000554440126
lhand -30.369095672227765 5.269371802602597
lfingers 7.125019999999998
lthumb -3.6739256708480394 35.21749181065739
rclavicle 4.287489420592877e-15 5.758951497915795e-17
rhumerus -35.533807402047955 12.069207330027533 -93.39512359549302
rradius 96.68551911816252
rwrist -7.909749447588422
rhand -23.203288441597344 40.55788670380837
rfingers 7.125019999999998
rthumb 3.246791558646538 10.602886899727704
2
root 0.4073277442237605 16.966313872119194 -29.533183263931917 4.774121989548613 1.172405601406179 -5.477616689426043
lfemur -34.208691372830295 3.78958148777189 -11.700417313434356
ltibia 96.33407896353103
lfoot 4.274658146014274 -12.989196794820414
ltoes -3.2536933950250773
rfemur -18.229298864425626 10.204982910738988 35.00008775406908
rtibia 48.872602349562065
rfoot -28.112981310027127 -10.805885226716072
rtoes 2.4200288847516163
lowerback 17.097283897941978 1.3051688204527585 2.996515084514627
upperback 0.11722794424380667 2.6450363899177023 3.2842890633538695
thorax -9.520824322866499 1.2096264279302038 1.202516407737575
lowerneck -20.748790020137175 -3.6015121543138866 -1.9578520283138645
upperneck 7.307381546883127 -4.581323478946903 2.3728412537014187
head 5.626097756920451 -2.096832244628146 0.5844104395946628
lclavicle 4.287489410447872e-15 5.758948268475865e-17
lhumerus -54.433097278887715 -10.509501163680412 96.23060023409649
lradius 102.88301346104635
lwrist 27.92939840239796
lhand -29.720799066286656 4.130696513623543
lfingers 7.125019999999998
lthumb -3.0478590652658286 34.088696486069374
rclavicle 4.287489410447872e-15 5.758948268475865e-17
rhumerus -33.88860884336099 13.385903688606515 -93.81732194976787
rradius 99.05601304314855
rwrist -10.133998019406654
rhand -23.765985268884926 39.46259140523516
rfingers 7.125019999999998
rthumb 2.7033247323177543 9.499971635134782
3
root 0.4307970863167833 17.07331207565891 -28.625883664155303 5.4488980338551745 2.125563279730124 -5.6130962154125665
lfemur -38.80958907735465 2.5561144019903312 -12.188216547190102
ltibia 94.67887970108887
lfoot 2.8036390244998834 -9.79843128529213
ltoes -0.8535218742243984
rfemur -13.952601059653375 9.963013488079834 35.60718676975045
rtibia 45.69500372650899
rfoot -26.902682130184115 -11.20598419847303
rtoes -0.1869408012538869
lowerback 16.46258691516086 1.3446985560707996 3.4439039141339247
upperback -0.8379833742285262 2.8175356867494044 3.4054178252537963
thorax -10.20537517454029 1.2627659231714299 1.0514770404667657
lowerneck -17.68051161101643 -3.7772304359478577 -2.671210603259417
upperneck 6.062897893612501 -4.7344524579243865 2.8258168977201628
head 4.786879368478559 -2.194650825178959 0.8804894947920968
lclavicle 4.287489433825274e-15 5.758947445286075e-17
lhumerus -58.71509441996223 -10.082902194713668 97.39789522320116
lradius 104.52601024520303
lwrist 29.144392993355297
lhand -29.41560066410676 4.182026301257729
lfingers 7.125019999999998
lthumb -2.7531206632831426 34.14399625702057
rclavicle 4.287489433825274e-15 5.758947445286075e-17
rhumerus -34.540308272425094 13.835602444931393 -94.01532117796874
rradius 102.33200464755868
rwrist -10.995693592017664
rhand -23.26608808750753 39.77199007717759
rfingers 7.125019999999998
rthumb 3.186151912762534 9.816020278168361
4
root 0.4653271183497684 17.241509251690506 -27.693084075627148 6.165663832008063 3.13400082340485 -5.407626934305005
lfemur -42.06548745292487 0.8171335105476062 -12.981615300904345
ltibia 91.28018121555127
lfoot -0.28161013300402016 -7.5433044590080325
ltoes -4.916881677074832
rfemur -9.951203113569793 9.637534264675697 35.8939863047487
rtibia 42.61180506254961
rfoot -24.02688407896325 -10.875785047075503
rtoes -1.9482172379123581
lowerback 15.47749159810132 1.6671363995487023 4.259361780875156
upperback -0.6102833972073187 3.2743638245559348 2.901882972062267
thorax -9.310867128730953 1.442124219491831 -0.03519030730182621
lowerneck -19.992295343443296 -4.293495387343091 -2.3088964060345933
upperneck 6.42862602843935 -5.488357431090419 3.0623646229897856
head 5.278312568931215 -2.508046277485491 0.7823344601400012
lclavicle 4.287489568575806e-15 5.758958020114882e-17
lhumerus -59.931593607752305 -11.083899775434983 97.67699402510223
lradius 105.48400837010996
lwrist 29.64029078566455
lhand -29.585999772007984 3.925847361142286
lfingers 7.125019999999998
lthumb -2.917659771182414 33.8855973272956
rclavicle 4.287489568575806e-15 5.758958020114882e-17
rhumerus -32.09001041906336 13.593603114198414 -93.76032217195247
rradius 105.0599976563593
rwrist -12.11238785444626
rhand -23.91548442594818 40.22558813016108
rfingers 7.125019999999998
rthumb 2.5590155750367534 10.26118836682286
5
root 0.5078899252030888 17.465805485839653 -26.718484505537617 6.530121695471664 2.770941707734566 -5.326637217670452
lfemur -43.41208678108084 0.04460383574443941 -13.692414184367983
ltibia 86.21698347171579
lfoot -4.3172967229112285 -5.788056929226976
ltoes -8.604767867761682
rfemur -5.91580518493838 9.585964387721813 36.00688612169881
rtibia 40.1082061474326
rfoot -19.809686936739045 -8.891680146168971
rtoes -6.8975028448349285
lowerback 14.678095398266397 2.2115827581938547 4.747070505016585
upperback -0.7946969489055529 4.0060508419402066 2.5322867498364516
thorax -8.975831606140115 1.7671611320474958 -0.8384100424799124
lowerneck -19.602298087778237 -4.662921774686811 -1.8057044650886582
upperneck 5.766959402866175 -6.050623682051498 2.6918781857243332
head 4.994326498207322 -2.8074819323631792 0.5444496468445343
lclavicle 4.287489361928867e-15 5.758949914857036e-17
lhumerus -62.35899198707136 -10.456501291774089 97.54319459946853
lradius 106.55100628167126
lwrist 30.17938838565228
lhand -27.752909368875716 3.6159486432807197
lfingers 7.125019999999998
lthumb -1.1472893698045625 33.59259854088145
rclavicle 4.287489361928867e-15 5.758949914857036e-17
rhumerus -31.42061100550574 13.962502093981044 -93.9768213280408
rradius 107.46299149805573
rwrist -12.193787436215475
rhand -23.597586218386912 38.49339556539478
rfingers 7.125019999999998
rthumb 2.865993782382901 8.532875787396229
6
root 0.5359721379852938 17.69610161925271 -25.783084918156376 6.701860688697915 3.093860921176555 -5.300907307693812
lfemur -44.328786323721914 -1.3966862590295797 -14.011513683120434
ltibia 80.03028622851251
lfoot -5.287876143285805 -5.485917354438159
ltoes -3.845332783905426
rfemur -2.687516842017855 8.540886881284576 35.99888613466957
rtibia 38.18180698219805
rfoot -13.690391083468322 -6.45664640413681
rtoes -9.14734084783712
lowerback 14.800094818306256 2.3982315098535425 5.1709593961123295
upperback -1.3881610699875337 4.353009427613991 2.303529088049717
thorax -9.635052796319078 1.8788600710472112 -1.4145226290478548
lowerneck -18.426906358781554 -4.685971549280841 -1.9790516887829697
upperneck 5.745839510575289 -6.097043372537587 3.0176750527412137
head 4.824518847692781 -2.8241016911932193 0.6921071859834513
lclavicle 4.28748951057347e-15 5.758954664028532e-17
lhumerus -65.00189022250937 -9.011524784091087 97.20099606843827
lradius 107.13000514839476
lwrist 30.41728732654837
lhand -27.01961320793693 3.5363389726483883
lfingers 7.125019999999998
lthumb -0.43906720965462886 33.515598859810154
rclavicle 4.28748951057347e-15 5.758954664028532e-17
rhumerus -31.585610860953892 14.831999689321233 -94.46801941335536
rradius 109.09598731307459
rwrist -11.433391343128076
rhand -24.86747905821718 38.18979686855662
rfingers 7.125019999999998
rthumb 1.6395209445892243 8.216367146337669
7
root 0.585662745027752 17.924597782886593 -24.805385349434268 6.65556096011764 3.703269436795548 -5.20352764840412
lfemur -44.14758641412601 -3.223491942975378 -14.358813137575876
ltibia 72.65548951472712
lfoot -6.911235173823543 -5.434877426268365
ltoes -6.912289615966295
rfemur 0.18560668320870377 6.523891693850179 35.46418700160281
rtibia 36.39320775725065
rfoot -5.7657064536159455 -3.4481841357997403
rtoes -7.493392315912427
lowerback 14.237897490876687 2.383811606296444 5.82812767694318
upperback -1.2094834421383212 4.37591933422509 2.107891087735163
thorax -9.050450608933 1.8738501186354992 -1.960190343154466
lowerneck -18.6470048099915 -4.70829133101354 -1.7377355536695485
upperneck 5.341991570155257 -6.149173024951196 2.865226518742676
head 4.719860295765033 -2.855841230619541 0.6028698819190554
lclavicle 4.287489427209042e-15 5.758952637716062e-17
lhumerus -65.85518965279402 -7.333828838860164 96.59869865394522
lradius 107.07500525604624
lwrist 30.016789109529107
lhand -27.229312110090024 3.7385581360106532
lfingers 7.125019999999998
lthumb -0.6415801116669875 33.71729802438263
rclavicle 4.287489427209042e-15 5.758952637716062e-17
rhumerus -30.64301168673898 15.709497262536892 -94.54111912841336
rradius 109.6949857779835
rwrist -10.331997002088539
rhand -25.642474688478192 39.230492401492945
rfingers 7.125019999999998
rthumb 0.8910713152939778 9.252612697179448
